<svg width="122" height="42" viewBox="0 0 122 42" fill="none" xmlns="http://www.w3.org/2000/svg">
<path d="M3.28 35V5.32H8.28V35H3.28ZM22.2025 35.32C19.1305 35.32 16.7198 34.456 14.9705 32.728C13.2425 31 12.3785 28.504 12.3785 25.24V12.6H16.5385V25.08C16.5385 27.384 17.0292 29.0587 18.0105 30.104C19.0132 31.1493 20.4212 31.672 22.2345 31.672C24.0478 31.672 25.4452 31.1493 26.4265 30.104C27.4078 29.0587 27.8985 27.384 27.8985 25.08V12.6H31.9945V25.24C31.9945 28.504 31.1198 31 29.3705 32.728C27.6425 34.456 25.2532 35.32 22.2025 35.32ZM36.2205 35V12.6H39.6445L49.4365 28.952H47.6445L57.2765 12.6H60.7005L60.7325 35H56.7965L56.7645 18.776H57.5965L49.4045 32.44H47.5485L39.2285 18.776H40.1885V35H36.2205ZM64.676 35V12.369H68.4885V35H64.676ZM72.4744 35V12.6H75.8984L89.9464 29.848H88.2504V12.6H92.3784V35H88.9544L74.9064 17.752H76.6024V35H72.4744ZM93.6127 35L103.693 12.6H107.789L117.901 35H113.549L104.877 14.808H106.541L97.9007 35H93.6127ZM98.2527 29.816L99.3727 26.552H111.469L112.589 29.816H98.2527Z" fill="#0A4E35"/>
<path d="M66.3641 6.29125C66.4179 6.17583 66.5821 6.17583 66.6359 6.29125L67.2724 7.65508C67.2873 7.68701 67.313 7.71267 67.3449 7.72757L68.7088 8.36407C68.8242 8.41794 68.8242 8.58206 68.7088 8.63593L67.3449 9.27243C67.313 9.28733 67.2873 9.31299 67.2724 9.34492L66.6359 10.7088C66.5821 10.8242 66.4179 10.8242 66.3641 10.7088L65.7276 9.34492C65.7127 9.31299 65.687 9.28733 65.6551 9.27243L64.2912 8.63593C64.1758 8.58206 64.1758 8.41794 64.2912 8.36407L65.6551 7.72757C65.687 7.71267 65.7127 7.68701 65.7276 7.65508L66.3641 6.29125Z" fill="#FDB149"/>
</svg>
