<svg width="122" height="34" viewBox="0 0 122 34" fill="none" xmlns="http://www.w3.org/2000/svg">
<path d="M3.28 33V3.32H8.28V33H3.28ZM22.2025 33.32C19.1305 33.32 16.7198 32.456 14.9705 30.728C13.2425 29 12.3785 26.504 12.3785 23.24V10.6H16.5385V23.08C16.5385 25.384 17.0292 27.0587 18.0105 28.104C19.0132 29.1493 20.4212 29.672 22.2345 29.672C24.0478 29.672 25.4452 29.1493 26.4265 28.104C27.4078 27.0587 27.8985 25.384 27.8985 23.08V10.6H31.9945V23.24C31.9945 26.504 31.1198 29 29.3705 30.728C27.6425 32.456 25.2532 33.32 22.2025 33.32ZM36.2205 33V10.6H39.6445L49.4365 26.952H47.6445L57.2765 10.6H60.7005L60.7325 33H56.7965L56.7645 16.776H57.5965L49.4045 30.44H47.5485L39.2285 16.776H40.1885V33H36.2205ZM64.676 33V10.369H68.4885V33H64.676ZM72.4744 33V10.6H75.8984L89.9464 27.848H88.2504V10.6H92.3784V33H88.9544L74.9064 15.752H76.6024V33H72.4744ZM93.6127 33L103.693 10.6H107.789L117.901 33H113.549L104.877 12.808H106.541L97.9007 33H93.6127ZM98.2527 27.816L99.3727 24.552H111.469L112.589 27.816H98.2527Z" fill="#F5EEDB"/>
<path d="M66.8641 0.291247C66.9179 0.175829 67.0821 0.17583 67.1359 0.291247L68.2497 2.67778C68.2646 2.70971 68.2903 2.73537 68.3222 2.75027L70.7088 3.86407C70.8242 3.91794 70.8242 4.08206 70.7088 4.13593L68.3222 5.24973C68.2903 5.26463 68.2646 5.29029 68.2497 5.32222L67.1359 7.70875C67.0821 7.82417 66.9179 7.82417 66.8641 7.70875L65.7503 5.32222C65.7354 5.29029 65.7097 5.26463 65.6778 5.24973L63.2912 4.13593C63.1758 4.08206 63.1758 3.91794 63.2912 3.86407L65.6778 2.75027C65.7097 2.73537 65.7354 2.70971 65.7503 2.67778L66.8641 0.291247Z" fill="#FDB149"/>
</svg>
