<svg width="185" height="63" viewBox="0 0 185 63" fill="none" xmlns="http://www.w3.org/2000/svg">
<circle cx="30.0806" cy="23.0223" r="15.2792" transform="rotate(-45 30.0806 23.0223)" stroke="#0A4E35" stroke-width="2"/>
<path d="M44.9683 38.524L40.0569 33.6126" stroke="#0A4E35" stroke-width="2.5"/>
<path d="M50.4937 44.0494L44.3544 37.9101" stroke="#0A4E35" stroke-width="5" stroke-linecap="round"/>
<path d="M29.6943 40.1149C22.5476 43.6666 15.6781 45.3203 11.5857 32.7379C12.1764 32.6557 14.8036 32.647 17.3549 32.2666C23.9694 31.7813 26.6408 33.3416 29.9157 39.173C24.4665 38.6463 21.121 36.462 18.3955 36.3419C22.2691 39.2586 24.5579 39.5959 29.6943 40.1149Z" fill="#0A4E35" stroke="#0A4E35" stroke-width="0.25"/>
<path d="M65.3038 42.8421V13.1621H70.3038V42.8421H65.3038ZM84.2263 43.1621C81.1543 43.1621 78.7436 42.2981 76.9943 40.5701C75.2663 38.8421 74.4023 36.3461 74.4023 33.0821V20.4421H78.5623V32.9221C78.5623 35.2261 79.0529 36.9007 80.0343 37.9461C81.0369 38.9914 82.4449 39.5141 84.2583 39.5141C86.0716 39.5141 87.4689 38.9914 88.4503 37.9461C89.4316 36.9007 89.9223 35.2261 89.9223 32.9221V20.4421H94.0183V33.0821C94.0183 36.3461 93.1436 38.8421 91.3943 40.5701C89.6663 42.2981 87.2769 43.1621 84.2263 43.1621ZM98.2443 42.8421V20.4421H101.668L111.46 36.7941H109.668L119.3 20.4421H122.724L122.756 42.8421H118.82L118.788 26.6181H119.62L111.428 40.2821H109.572L101.252 26.6181H102.212V42.8421H98.2443ZM126.7 42.8421V20.2111H130.512V42.8421H126.7ZM134.498 42.8421V20.4421H137.922L151.97 37.6901H150.274V20.4421H154.402V42.8421H150.978L136.93 25.5941H138.626V42.8421H134.498ZM155.636 42.8421L165.716 20.4421H169.812L179.924 42.8421H175.572L166.9 22.6501H168.564L159.924 42.8421H155.636ZM160.276 37.6581L161.396 34.3941H173.492L174.612 37.6581H160.276Z" fill="#0A4E35"/>
<path d="M128.388 14.1333C128.442 14.0179 128.606 14.0179 128.66 14.1333L129.296 15.4972C129.311 15.5291 129.337 15.5547 129.369 15.5696L130.733 16.2061C130.848 16.26 130.848 16.4241 130.733 16.478L129.369 17.1145C129.337 17.1294 129.311 17.1551 129.296 17.187L128.66 18.5508C128.606 18.6662 128.442 18.6662 128.388 18.5508L127.751 17.187C127.736 17.1551 127.711 17.1294 127.679 17.1145L126.315 16.478C126.2 16.4241 126.2 16.26 126.315 16.2061L127.679 15.5696C127.711 15.5547 127.736 15.5291 127.751 15.4972L128.388 14.1333Z" fill="#FDB149"/>
<rect x="21.7735" y="23.9417" width="5.10532" height="6.5117" rx="1.5" fill="#FFF09D"/>
<rect x="33.9242" y="15.2594" width="5.10532" height="15.194" rx="1.5" fill="#FDB149"/>
<rect x="27.8488" y="19.6006" width="5.10532" height="10.8528" rx="1.5" fill="#FFE346"/>
</svg>
