<svg width="486" height="459" viewBox="0 0 486 459" fill="none" xmlns="http://www.w3.org/2000/svg">
<path d="M421.7 43.6488C437.259 53.8651 445.771 72.3513 446.426 94.6266C447.08 116.886 439.833 142.541 424.316 166.173C408.8 189.805 388.14 206.653 367.454 214.901C346.754 223.155 326.408 222.693 310.848 212.477C295.289 202.261 286.777 183.774 286.122 161.499C285.468 139.239 292.716 113.585 308.233 89.9527C323.75 66.3208 344.409 49.4725 365.094 41.2244C385.794 32.9706 406.14 33.4327 421.7 43.6488Z" fill="#133020" stroke="#1C4730" stroke-width="8"/>
<path d="M63.5797 43.6505C79.1389 33.4339 99.4853 32.9714 120.186 41.2248C140.871 49.4723 161.531 66.3196 177.049 89.9512C192.566 113.583 199.814 139.238 199.16 161.498C198.506 183.773 189.994 202.259 174.435 212.476C158.876 222.692 138.529 223.155 117.829 214.902C97.1436 206.654 76.4839 189.806 60.9666 166.174C45.4495 142.542 38.2011 116.888 38.8548 94.6288C39.509 72.3536 48.0206 53.8671 63.5797 43.6505Z" fill="#133020" stroke="#1C4730" stroke-width="8"/>
<ellipse cx="241.345" cy="249.489" rx="235.423" ry="196.185" fill="#1C4730"/>
<path d="M140.661 413.818L87.0853 389.41C84.5691 421.991 78.3029 437.652 66.629 459C104.521 446.856 121.601 437.435 140.661 413.818Z" fill="#1C4730"/>
<rect x="56.2645" y="140.661" width="371.642" height="233.942" rx="50" fill="#FFF5BA"/>
<ellipse cx="4.00537" cy="3.70366" rx="4.00537" ry="3.70366" transform="matrix(-0.997253 0.0740771 0.0867263 0.996232 366.305 245.787)" fill="black"/>
<path d="M265.874 248.748L242.519 256.776C242.302 256.851 242.066 256.849 241.85 256.77L219.974 248.748" stroke="black" stroke-width="5" stroke-linecap="round" stroke-linejoin="round"/>
<path d="M361.621 230.742C362.949 230.375 364.337 231.154 364.722 232.484C365.107 233.813 364.343 235.189 363.016 235.557L362.319 233.15L361.621 230.742ZM352.024 238.601C350.697 238.969 349.309 238.189 348.924 236.86C348.539 235.531 349.302 234.155 350.63 233.787L351.327 236.194L352.024 238.601ZM349.592 224.26C350.881 223.78 352.33 224.439 352.827 225.732C353.324 227.025 352.682 228.462 351.392 228.942L350.492 226.601L349.592 224.26ZM338.932 233.581C337.642 234.061 336.194 233.402 335.696 232.109C335.199 230.816 335.841 229.379 337.131 228.899L338.031 231.24L338.932 233.581ZM362.319 233.15L363.016 235.557L352.024 238.601L351.327 236.194L350.63 233.787L361.621 230.742L362.319 233.15ZM350.492 226.601L351.392 228.942L338.932 233.581L338.031 231.24L337.131 228.899L349.592 224.26L350.492 226.601Z" fill="black"/>
<path d="M293.397 245.028C315.377 226.467 332.402 225.258 359.042 239.95C361.126 241.099 359.701 244.17 357.413 243.534C331.216 236.256 315.049 238.638 295.664 248.145C293.571 249.172 291.619 246.53 293.397 245.028Z" fill="black" stroke="black" stroke-width="5" stroke-linejoin="round"/>
<path d="M124.226 230.742C122.899 230.375 121.51 231.154 121.125 232.484C120.74 233.813 121.504 235.189 122.831 235.557L123.529 233.15L124.226 230.742ZM133.823 238.601C135.15 238.969 136.539 238.189 136.924 236.86C137.309 235.531 136.545 234.155 135.217 233.787L134.52 236.194L133.823 238.601ZM136.256 224.26C134.966 223.78 133.518 224.439 133.02 225.732C132.523 227.025 133.165 228.462 134.455 228.942L135.355 226.601L136.256 224.26ZM146.916 233.581C148.205 234.061 149.654 233.402 150.151 232.109C150.648 230.816 150.006 229.379 148.716 228.899L147.816 231.24L146.916 233.581ZM123.529 233.15L122.831 235.557L133.823 238.601L134.52 236.194L135.217 233.787L124.226 230.742L123.529 233.15ZM135.355 226.601L134.455 228.942L146.916 233.581L147.816 231.24L148.716 228.899L136.256 224.26L135.355 226.601Z" fill="black"/>
<path d="M192.45 245.028C170.47 226.467 153.446 225.258 126.805 239.95C124.722 241.099 126.146 244.17 128.435 243.534C154.632 236.256 170.799 238.638 190.183 248.145C192.276 249.172 194.229 246.53 192.45 245.028Z" fill="black" stroke="black" stroke-width="5" stroke-linejoin="round"/>
<path d="M182.119 204.329C232.203 176.627 241.38 163.129 242.826 140.661H110.308C110.308 140.661 87.9902 138.335 70.755 155.57C53.5197 172.805 55.5242 191.003 55.5242 191.003V297.61C50.131 359.779 73.4488 374.84 107.347 380.526C110.207 305.875 106.889 253.768 101.424 179.158L112.529 230.981C134.457 219.912 150.788 220.572 186.561 165.092L182.119 204.329Z" fill="#FFB347" stroke="#FFB347" stroke-width="5" stroke-linecap="round" stroke-linejoin="round"/>
</svg>
